# xmcd
#
# Track frame offsets:
#	150
#	17982
#	36085
#	55052
#
# Disc length: 1067 seconds
#
# Revision: 1
# Processed by: cddbd v1.4PL0 Copyright (c) Steve Scherf et al.
# Submitted via: audiograbber 1.81.02
#
DISCID=2b042904
DTITLE=Ballermann - RICH - Demo
DYEAR=1900
DGENRE=
TTITLE0=Redbeard Smiles
TTITLE1=Rockin`And Rollin
TTITLE2=Hermann The German
TTITLE3=When She`s Dancing
EXTD=
EXTT0=
EXTT1=
EXTT2=
EXTT3=
PLAYORDER=
